<svg width="71" height="33" viewBox="0 0 71 33" fill="none" xmlns="http://www.w3.org/2000/svg">
<g clip-path="url(#clip0_652_14432)">
<path d="M6.54078 24.0735C5.305 23.5162 4.28866 23.063 4.28866 22.1529C4.28866 21.4544 4.86612 20.9492 6.00566 20.9492C6.42529 20.9492 6.76792 20.9975 7.1221 21.0607C7.30689 21.0904 7.50707 21.1164 7.66877 21.1164C8.66586 21.1164 9.22793 20.5443 9.60136 19.4558L9.75535 19.01C9.59751 18.9468 7.96905 18.2559 5.84397 18.2559C2.46386 18.2559 0.681412 20.3437 0.685261 22.5132C0.685261 23.6091 1.03944 24.4004 1.59766 25.0245C2.31372 25.8269 3.33391 26.3545 4.28866 26.804C5.67843 27.4615 6.93731 27.9519 6.93731 28.9289C6.93731 29.7945 6.00951 30.2886 4.76988 30.2886C3.06828 30.2886 1.58611 29.3524 1.39747 29.2373L0 31.7635C0.246386 31.8972 2.04423 33.0005 5.00472 33.0005C8.15769 33.0005 10.5446 31.2545 10.5446 28.5723C10.5446 25.8901 8.33478 24.9131 6.54078 24.0772V24.0735Z" fill="#C2C9D1"/>
<path d="M18.4189 25.5869L23.6173 18.957H19.9136L15.7689 24.6767H15.7059V18.957H12.6533V32.9996H12.8354C14.1551 32.9996 15.7269 32.3624 15.7269 30.0724V26.8466H15.7864L20.0151 32.8248H23.9008L18.4189 25.5833V25.5869Z" fill="#C2C9D1"/>
<path d="M24.2853 3.50977C23.1913 3.72347 21.5699 4.74776 21.5735 6.56422C21.5771 8.21487 22.8813 9.21337 22.8848 11.3762C22.892 13.001 22.0261 14.0953 21.0889 14.7033C21.4666 14.6701 21.8835 14.6443 22.3396 14.6443C23.2982 14.6443 23.8755 14.7364 23.9111 14.7438L28.8215 8.517C27.4603 6.40578 25.8674 4.76987 24.2888 3.51345L24.2853 3.50977Z" fill="#C2C9D1"/>
<path d="M28.3274 20.3545C28.9779 19.3496 29.0564 17.7492 29.1124 16.119C29.1722 14.5967 29.4937 13.4541 31.5348 13.4466C31.9871 13.4466 32.4207 13.5062 33.202 13.5062C36.1962 13.4913 38.1513 12.4678 39.3662 11.7941C36.8803 10.216 33.2543 8.60815 28.7536 8.42578C28.462 9.24832 26.178 15.5607 26.0098 16.0706C26.0359 16.1004 26.4359 16.547 26.9331 17.4179C27.6695 18.6089 28.0658 19.6213 28.3274 20.362V20.3545Z" fill="#C2C9D1"/>
<path d="M17.468 15.4468C17.2104 15.4468 17.0815 15.2772 17.0484 14.9823C17.0153 14.6874 15.7492 3.06724 15.5578 1.30874C15.5321 1.05068 15.4658 0.582481 15.4658 0.412898C15.4658 0.14009 15.6425 0 15.8486 0C16.4485 0 19.7241 0.76681 23.1985 3.20733C22.1974 3.4912 20.3866 4.5345 20.394 6.69116C20.4013 8.60081 21.7668 9.65518 21.7741 11.5722C21.7852 14.6911 18.2078 15.4468 17.4643 15.4468H17.468Z" fill="#C2C9D1"/>
<path d="M28.8223 21.2339C28.8767 21.3732 28.9276 21.4911 28.9784 21.5768C29.0583 21.709 29.16 21.7698 29.2872 21.7662C29.3671 21.7662 29.4651 21.7412 29.5741 21.6912C29.8392 21.5733 40.2884 16.7898 41.8611 16.0718C42.0899 15.9646 42.5221 15.7752 42.6674 15.6931C42.8163 15.6109 42.8817 15.4895 42.8817 15.3644C42.8817 15.293 42.8599 15.2251 42.8236 15.1608C42.6274 14.8464 41.6141 13.7926 39.9252 12.6387C38.5814 13.3639 36.4858 14.4892 33.3695 14.5035C32.6068 14.5035 32.4325 14.4535 31.9131 14.457C30.3913 14.4606 30.0099 15.1001 29.9554 16.4147C29.9445 16.6612 29.9409 16.997 29.9264 17.3614C29.8792 18.5331 29.7375 20.1515 28.8259 21.2339H28.8223Z" fill="#C2C9D1"/>
<path d="M68.4518 22.9281V21.7656H60.8247V22.9281H63.1502L60.4551 29.489H62.307L64.6941 23.6162L66.8193 29.0112C66.9541 29.3179 67.2737 29.4819 67.5547 29.489H68.8907L66.1225 22.9281H68.4557H68.4518Z" fill="#C2C9D1"/>
<path d="M69.5938 21.7656V32.9997H69.9679C70.5381 32.9997 70.9997 32.4352 70.9997 31.7379V21.7656H69.5938Z" fill="#C2C9D1"/>
<path d="M56.6557 21.7656V24.6802H52.7227V25.8829H56.6557V32.9997H57.1056C57.7877 32.9997 58.3464 32.4352 58.3464 31.7379V21.7656H56.6557Z" fill="#C2C9D1"/>
<path d="M50.1617 21.7693H48.5049V28.2425C48.5049 28.9314 49.05 29.489 49.7234 29.489H55.5346V28.3008H50.1617V21.7656V21.7693Z" fill="#C2C9D1"/>
<path d="M44.2871 21.7656V32.9997H44.6612C45.2284 32.9997 45.693 32.4352 45.693 31.7379V21.7656H44.2871Z" fill="#C2C9D1"/>
<path d="M41.8439 25.2424H41.0821C40.9104 23.2749 39.8835 21.7656 38.1284 21.7656C36.2015 21.7656 35.1484 23.5877 35.1484 25.8316C35.1484 28.0755 36.2015 29.9011 38.1284 29.9011C39.8835 29.9011 40.9141 28.3919 41.0821 26.4244H41.8439V32.9997H42.307C43.009 32.9997 43.5841 32.4432 43.5841 31.7559V21.9256H41.8439V25.2424ZM38.1284 28.7192C37.3106 28.7192 36.8961 27.4281 36.8961 25.8352C36.8961 24.2423 37.3106 22.9512 38.1284 22.9512C38.9462 22.9512 39.3607 24.2423 39.3607 25.8352C39.3607 27.4281 38.9462 28.7192 38.1284 28.7192Z" fill="#C2C9D1"/>
</g>
<defs>
<clipPath id="clip0_652_14432">
<rect width="71" height="33" fill="white"/>
</clipPath>
</defs>
</svg>
