<svg width="98" height="45" viewBox="0 0 98 45" fill="none" xmlns="http://www.w3.org/2000/svg">
<path d="M75.1112 22.0712L75.0189 22.1829V20.9182C75.0179 20.8279 74.9826 20.7416 74.9207 20.6782C74.8588 20.6147 74.7753 20.5791 74.6882 20.5791H70.7965C70.7095 20.5791 70.6259 20.6147 70.564 20.6782C70.5021 20.7416 70.4668 20.8279 70.4658 20.9182V33.6214C70.4663 33.666 70.4753 33.71 70.4922 33.7509C70.509 33.7919 70.5335 33.829 70.5643 33.8601C70.595 33.8912 70.6313 33.9158 70.6711 33.9323C70.711 33.9489 70.7536 33.9571 70.7965 33.9566H74.6882C74.7312 33.9571 74.7738 33.9489 74.8136 33.9323C74.8535 33.9158 74.8898 33.8912 74.9205 33.8601C74.9512 33.829 74.9757 33.7919 74.9926 33.7509C75.0095 33.71 75.0184 33.666 75.0189 33.6214V25.4625C75.2589 25.1405 75.5675 24.8804 75.9203 24.7026C76.2732 24.5247 76.6609 24.4339 77.0532 24.4371C78.2915 24.4371 78.9183 25.0715 78.9183 26.3203V33.6374C78.9188 33.682 78.9278 33.726 78.9447 33.7669C78.9616 33.8078 78.9861 33.8449 79.0168 33.8761C79.0475 33.9072 79.0838 33.9317 79.1237 33.9483C79.1635 33.9648 79.2061 33.9731 79.249 33.9725H83.1407C83.1837 33.9731 83.2263 33.9648 83.2661 33.9483C83.306 33.9317 83.3423 33.9072 83.373 33.8761C83.4037 33.8449 83.4282 33.8078 83.4451 33.7669C83.462 33.726 83.471 33.682 83.4715 33.6374V24.2895C83.4715 21.7999 81.9332 20.2998 79.3567 20.2998C76.961 20.2998 75.6612 21.401 75.0997 22.0593" fill="#EF3340"/>
<path d="M49.4387 20.591H45.6816C45.5952 20.591 45.5122 20.626 45.4504 20.6886C45.3886 20.7513 45.3529 20.8365 45.3509 20.9261V28.2433C45.3184 28.8024 45.0814 29.3275 44.6883 29.7115C44.2952 30.0954 43.7757 30.3092 43.2358 30.3092C42.696 30.3092 42.1764 30.0954 41.7833 29.7115C41.3903 29.3275 41.1533 28.8024 41.1208 28.2433V20.9182C41.1188 20.8285 41.083 20.7433 41.0212 20.6807C40.9594 20.618 40.8764 20.583 40.79 20.583H37.033C36.9469 20.583 36.8644 20.6182 36.8032 20.6809C36.742 20.7437 36.7071 20.8289 36.7061 20.9182V28.3709C36.7061 32.0574 39.148 34.2598 43.2435 34.2598C47.339 34.2598 49.7809 32.0495 49.7809 28.351V20.9182C49.7799 20.8289 49.745 20.7437 49.6838 20.6809C49.6227 20.6182 49.5401 20.583 49.4541 20.583" fill="#EF3340"/>
<path d="M70.6004 17.559L72.5501 19.0112C72.6058 19.054 72.6732 19.0771 72.7424 19.0771C72.8116 19.0771 72.879 19.054 72.9347 19.0112L74.8805 17.559C74.922 17.5281 74.9559 17.4873 74.9793 17.4402C75.0027 17.393 75.015 17.3407 75.0151 17.2877V14.842C75.0141 14.7528 74.9792 14.6675 74.918 14.6048C74.8568 14.542 74.7743 14.5069 74.6882 14.5069H70.7965C70.7536 14.5063 70.711 14.5146 70.6711 14.5311C70.6313 14.5477 70.595 14.5722 70.5643 14.6034C70.5335 14.6345 70.509 14.6716 70.4922 14.7125C70.4753 14.7535 70.4663 14.7975 70.4658 14.842V17.2877C70.466 17.3407 70.4782 17.393 70.5016 17.4402C70.525 17.4873 70.5589 17.5281 70.6004 17.559Z" fill="#EF3340"/>
<path d="M33.3982 15.4678H29.1681C28.9459 15.4676 28.7289 15.5373 28.5456 15.6677C28.3623 15.798 28.2214 15.9829 28.1414 16.1979L25.1457 24.5165H24.6996L21.7347 16.2019C21.6553 15.9861 21.5146 15.8004 21.3313 15.6693C21.1479 15.5382 20.9306 15.468 20.7079 15.4678H16.4778C16.3339 15.4667 16.1913 15.4953 16.0581 15.5518C15.9249 15.6084 15.8039 15.6917 15.7019 15.7971C15.6 15.9025 15.5193 16.0278 15.4643 16.1657C15.4094 16.3037 15.3813 16.4516 15.3818 16.6009V33.222C15.3823 33.3184 15.4012 33.4138 15.4372 33.5027C15.4732 33.5916 15.5258 33.6722 15.5918 33.74C15.6579 33.8078 15.7362 33.8614 15.8222 33.8978C15.9083 33.9342 16.0003 33.9527 16.0933 33.9522H19.0813C19.1742 33.9527 19.2663 33.9342 19.3524 33.8978C19.4384 33.8614 19.5167 33.8078 19.5827 33.74C19.6488 33.6722 19.7014 33.5916 19.7374 33.5027C19.7734 33.4138 19.7922 33.3184 19.7927 33.222V22.7929H20.1772V22.8288L23.7382 32.2366C23.7911 32.3739 23.8823 32.4917 24.0002 32.5749C24.118 32.658 24.2571 32.7028 24.3996 32.7034H25.4034C25.5463 32.7044 25.6861 32.6604 25.8042 32.577C25.9224 32.4936 26.0133 32.3749 26.0648 32.2366L29.6642 22.7929H30.0488V33.2101C30.0493 33.3065 30.0681 33.4018 30.1041 33.4907C30.1401 33.5796 30.1927 33.6602 30.2588 33.728C30.3248 33.7958 30.4031 33.8494 30.4891 33.8859C30.5752 33.9223 30.6673 33.9407 30.7602 33.9402H33.7482C33.8411 33.9407 33.9332 33.9223 34.0192 33.8859C34.1053 33.8494 34.1836 33.7958 34.2496 33.728C34.3157 33.6602 34.3682 33.5796 34.4043 33.4907C34.4403 33.4018 34.4591 33.3065 34.4596 33.2101V16.6009C34.4576 16.3021 34.3415 16.0164 34.1368 15.8063C33.9321 15.5961 33.6555 15.4787 33.3675 15.4798" fill="#EF3340"/>
<path d="M52.0302 33.6175C52.0288 33.6625 52.0363 33.7072 52.0521 33.7491C52.068 33.7909 52.0919 33.829 52.1224 33.8609C52.1533 33.8927 52.1899 33.9179 52.2301 33.935C52.2704 33.9521 52.3135 33.9608 52.357 33.9606H56.091C56.1774 33.9607 56.2604 33.9256 56.3222 33.863C56.384 33.8003 56.4197 33.7151 56.4217 33.6255V24.5808H61.0364V33.6175C61.0364 33.7075 61.0709 33.7937 61.1322 33.8573C61.1935 33.9209 61.2766 33.9566 61.3633 33.9566H65.1165C65.1598 33.9572 65.2027 33.9488 65.2428 33.932C65.2829 33.9152 65.3194 33.8903 65.3502 33.8587C65.3809 33.8272 65.4054 33.7896 65.422 33.7482C65.4387 33.7068 65.4472 33.6624 65.4472 33.6175V24.5808H68.1391C68.2252 24.5808 68.3077 24.5456 68.3689 24.4829C68.4301 24.4202 68.465 24.3349 68.466 24.2457V20.9143C68.465 20.8257 68.4307 20.7411 68.3703 20.6784C68.31 20.6158 68.2283 20.5802 68.143 20.5791L65.4511 20.5552V19.9168C65.4511 19.1628 66.0587 18.8237 66.6586 18.8237C67.0162 18.84 67.3602 18.971 67.6431 19.1987C67.6503 19.2022 67.6581 19.2041 67.6661 19.2041C67.6741 19.2041 67.682 19.2022 67.6892 19.1987C67.7068 19.1942 67.722 19.1827 67.7315 19.1668L69.0506 16.7729C69.0582 16.7611 69.0622 16.7473 69.0622 16.7331C69.0622 16.7189 69.0582 16.705 69.0506 16.6931C68.2545 15.8473 67.0701 15.3965 65.6165 15.3965C62.9246 15.3965 61.0518 17.2517 61.0518 19.9049V20.5911H60.9557C60.6134 20.5911 57.6446 20.5712 56.4833 20.5712H56.4294V19.9328C56.4294 19.1787 57.037 18.8396 57.637 18.8396C57.9945 18.8565 58.3383 18.9875 58.6214 19.2146C58.6286 19.2182 58.6365 19.2201 58.6445 19.2201C58.6525 19.2201 58.6604 19.2182 58.6676 19.2146C58.6758 19.2124 58.6834 19.2084 58.69 19.2029C58.6966 19.1974 58.7021 19.1905 58.706 19.1827L60.025 16.7889C60.0338 16.7776 60.0385 16.7635 60.0385 16.749C60.0385 16.7345 60.0338 16.7204 60.025 16.7091C59.229 15.8633 58.0407 15.4125 56.591 15.4125C53.8991 15.4125 52.0225 17.2677 52.0225 19.9208L52.0302 33.6175Z" fill="#EF3340"/>
</svg>
